<?xml version="1.0" encoding="UTF-8" standalone="no"?> <!-- Created with Vectornator for iOS (http://vectornator.io/) --><!DOCTYPE svg PUBLIC "-//W3C//DTD SVG 1.1//EN" "http://www.w3.org/Graphics/SVG/1.1/DTD/svg11.dtd">
<svg height="100%" style="fill-rule:evenodd;clip-rule:evenodd;stroke-linecap:round;stroke-linejoin:round;" xmlns:xlink="http://www.w3.org/1999/xlink" xmlns="http://www.w3.org/2000/svg" xml:space="preserve" width="100%" xmlns:vectornator="http://vectornator.io" version="1.1" viewBox="0 0 1024 200">
<metadata>
<vectornator:setting key="DimensionsVisible" value="1"/>
<vectornator:setting key="PencilOnly" value="1"/>
<vectornator:setting key="SnapToPoints" value="0"/>
<vectornator:setting key="OutlineMode" value="0"/>
<vectornator:setting key="CMYKEnabledKey" value="0"/>
<vectornator:setting key="RulersVisible" value="1"/>
<vectornator:setting key="SnapToEdges" value="0"/>
<vectornator:setting key="GuidesVisible" value="1"/>
<vectornator:setting key="DisplayWhiteBackground" value="0"/>
<vectornator:setting key="doHistoryDisabled" value="0"/>
<vectornator:setting key="SnapToGuides" value="1"/>
<vectornator:setting key="TimeLapseWatermarkDisabled" value="0"/>
<vectornator:setting key="Units" value="Pixels"/>
<vectornator:setting key="DynamicGuides" value="0"/>
<vectornator:setting key="IsolateActiveLayer" value="0"/>
<vectornator:setting key="SnapToGrid" value="0"/>
</metadata>
<defs/>
<g id="Layer 2" vectornator:layerName="Layer 2">
<g opacity="1">
<path d="M184.931+124.451L170.428+147.277L181.841+163.95L51.0734+163.553L116.457+68.8752L152.359+120.482L167.1+99.2436L113.604+23.6204L-1.23352+189.753L230.819+189.952" opacity="1" fill="#ffffff"/>
<path d="M169.477+103.61L147.603+134.971L104.094+134.971L130.485+96.0678L116.695+76.2192L59.6327+159.98L86.0239+160.377L92.6811+152.438L135.478+151.842L130.485+160.179L159.967+160.576L181.841+122.665L169.477+103.61Z" opacity="1" fill="#ffffff"/>
<g opacity="1">
<path d="M339.446+89.3546C338.092+94.3795+336.775+99.7184+335.496+105.371C333.352+105.371+329.458+105.795+323.815+106.643C316.593+107.743+311.251+108.292+307.79+108.292C299.212+108.292+291.688+106.879+285.218+104.052C278.747+101.226+273.706+97.1824+270.095+91.922C266.483+86.6616+264.677+80.8123+264.677+74.3741C264.677+68.0302+266.587+62.1809+270.405+56.8262C274.223+51.4715+279.481+47.3024+286.177+44.3189C292.873+41.3354+300.416+39.8436+308.805+39.8436C312.341+39.8436+317.082+40.1577+323.025+40.7858C327.653+41.2883+331.02+41.5395+333.126+41.5395C333.615+45.9363+334.481+51.2753+335.722+57.5564C335.722+58.0589+335.12+58.3101+333.916+58.3101C333.164+58.3101+332.712+58.0589+332.562+57.5564C331.208+53.2852+328.292+49.7678+323.815+47.0041C319.339+44.2404+314.185+42.8585+308.354+42.8585C299.513+42.8585+292.093+45.9049+286.092+51.9976C280.092+58.0903+277.092+65.5491+277.092+74.3741C277.092+82.9478+280.064+90.2418+286.008+96.256C291.952+102.27+299.212+105.277+307.79+105.277C321.22+105.277+330.737+99.9697+336.343+89.3546C336.606+88.8521+337.114+88.6009+337.866+88.6009C338.92+88.6009+339.446+88.8521+339.446+89.3546Z" opacity="1" fill="#ffffff"/>
<path d="M425.106+105.466C425.106+106.345+424.805+106.785+424.203+106.785C421.608+106.785+418.673+106.69+415.4+106.502C412.579+106.314+410.171+106.219+408.177+106.219C405.883+106.219+403.042+106.314+399.657+106.502C396.083+106.69+393.035+106.785+390.515+106.785C389.913+106.785+389.612+106.345+389.612+105.466C389.612+104.586+389.838+104.147+390.289+104.147C393.637+104.021+396.045+103.652+397.512+103.04C398.979+102.427+399.713+101.477+399.713+100.19C399.713+99.373+399.337+98.0696+398.584+96.2795L392.208+80.4982L368.959+80.4982L362.526+95.1018C361.698+97.049+361.285+98.5564+361.285+99.6242C361.285+102.388+364.332+103.895+370.426+104.147C370.878+104.147+371.103+104.586+371.103+105.466C371.103+106.345+370.802+106.785+370.2+106.785C367.943+106.785+365.442+106.69+362.695+106.502C360.1+106.314+357.786+106.219+355.754+106.219C354.137+106.219+352.105+106.314+349.66+106.502C347.102+106.69+344.92+106.785+343.114+106.785C342.55+106.785+342.268+106.392+342.268+105.607C342.268+104.728+342.7+104.257+343.566+104.194C346.688+103.943+349.162+103.22+350.986+102.027C352.811+100.833+354.701+98.3994+356.657+94.7249L383.066+40.5973C383.292+40.0949+383.819+39.8436+384.646+39.8436C385.549+39.8436+386.113+40.0791+386.339+40.5502L409.645+94.7249C410.961+97.7713+412.739+100.017+414.977+101.461C417.215+102.906+420.216+103.817+423.978+104.194C424.73+104.257+425.106+104.681+425.106+105.466ZM390.966+77.4833L381.035+53.4108L370.313+77.4833L390.966+77.4833Z" opacity="1" fill="#ffffff"/>
<path d="M478.375+87.8471C478.375+94.0968+476.156+99.0668+471.717+102.757C467.278+106.447+461.277+108.292+453.716+108.292C450.368+108.292+446.361+107.79+441.696+106.785C437.445+105.843+433.966+105.371+431.257+105.371C431.031+100.033+430.58+94.6935+429.903+89.3546C429.903+88.8521+430.467+88.6009+431.596+88.6009C432.386+88.6009+432.875+88.8521+433.063+89.3546C435.094+95.196+437.69+99.3102+440.85+101.697C444.01+104.084+448.449+105.277+454.167+105.277C458.719+105.277+462.246+104.178+464.748+101.98C467.249+99.7813+468.5+96.7035+468.5+92.7464C468.5+90.2025+467.409+87.8393+465.227+85.6566C463.045+83.4739+458.399+80.6552+451.289+77.2006C443.126+73.2749+437.784+69.9459+435.263+67.2136C432.743+64.4813+431.483+61.4507+431.483+58.1217C431.483+53.0026+433.749+48.6764+438.282+45.1433C442.816+41.6102+448.562+39.8436+455.522+39.8436C458.155+39.8436+461.183+40.142+464.607+40.7387C467.804+41.2726+470.569+41.5395+472.902+41.5395C473.353+47.0669+473.955+51.9348+474.708+56.1431C474.708+56.6456+474.219+56.8969+473.24+56.8969C472.187+56.8969+471.604+56.6456+471.491+56.1431C470.25+51.4323+468.369+48.0405+465.848+45.9677C463.328+43.8949+459.848+42.8585+455.409+42.8585C451.195+42.8585+447.847+43.8949+445.364+45.9677C442.881+48.0405+441.64+50.8356+441.64+54.353C441.64+56.5828+442.684+58.7105+444.772+60.7362C446.86+62.7619+451.383+65.4706+458.343+68.8624C466.582+72.8823+471.98+76.2427+474.538+78.9436C477.096+81.6445+478.375+84.6123+478.375+87.8471Z" opacity="1" fill="#ffffff"/>
<path d="M554.668+91.2389C551.621+96.6721+549.138+101.854+547.219+106.785C533.037+106.408+522.936+106.219+516.917+106.219C510.973+106.219+500.891+106.408+486.671+106.785C486.069+106.785+485.768+106.345+485.768+105.466C485.768+104.681+486.069+104.257+486.671+104.194C489.793+103.88+492.182+103.464+493.837+102.945C495.492+102.427+496.649+101.728+497.308+100.849C497.966+99.9697+498.295+98.4308+498.295+96.2324L498.295+51.9034C498.295+49.7364+497.985+48.2054+497.364+47.3103C496.743+46.4152+495.605+45.7008+493.95+45.1669C492.295+44.633+489.868+44.209+486.671+43.8949C486.069+43.8949+485.768+43.4553+485.768+42.5759C485.768+41.6965+486.069+41.2569+486.671+41.2569C496.151+41.6337+505.857+41.8222+515.788+41.8222C525.795+41.8222+535.52+41.6337+544.962+41.2569C545.827+46.1247+547.088+50.9298+548.743+55.672C548.743+56.3002+548.085+56.6142+546.768+56.6142C546.128+56.6142+545.733+56.3944+545.583+55.9547C542.799+48.543+536.855+44.8371+527.751+44.8371L516.352+44.8371C511.989+44.8371+509.807+46.7214+509.807+50.4901L509.807+71.4534L524.027+71.4534C527.789+71.4534+530.337+70.731+531.673+69.2864C533.008+67.8417+533.94+65.2822+534.466+61.6077C534.466+61.1052+534.993+60.854+536.046+60.854C537.1+60.854+537.626+61.1052+537.626+61.6077C537.626+63.178+537.513+65.1565+537.288+67.5434C537.062+69.836+536.949+71.7046+536.949+73.1493C536.949+74.6253+537.062+76.5097+537.288+78.8023C537.513+81.2519+537.626+83.2619+537.626+84.8322C537.626+85.3347+537.1+85.5859+536.046+85.5859C534.993+85.5859+534.466+85.3347+534.466+84.8322C533.902+81.0007+532.914+78.3155+531.504+76.7766C530.093+75.2378+527.601+74.4683+524.027+74.4683L509.807+74.4683L509.807+97.6457C509.807+101.352+511.989+103.204+516.352+103.204L528.654+103.204C533.131+103.204+537.57+101.988+541.971+99.5536C546.373+97.1196+549.608+94.0811+551.677+90.4381C551.828+90.1554+552.147+90.0141+552.636+90.0141C553.163+90.0141+553.633+90.1319+554.047+90.3674C554.461+90.603+554.668+90.8935+554.668+91.2389Z" opacity="1" fill="#ffffff"/>
<path d="M643.939+42.5759C643.939+42.9214+643.808+43.2276+643.544+43.4945C643.281+43.7615+642.999+43.8949+642.698+43.8949C638.973+44.2404+636.161+44.8842+634.262+45.8264C632.362+46.7685+630.114+48.8099+627.518+51.9505L606.414+77.2948L606.414+96.2324C606.414+98.368+606.63+99.8755+607.063+100.755C607.495+101.634+608.492+102.349+610.053+102.898C611.615+103.448+613.994+103.88+617.192+104.194C617.794+104.257+618.095+104.681+618.095+105.466C618.095+106.345+617.794+106.785+617.192+106.785C614.671+106.785+611.831+106.69+608.671+106.502C605.624+106.314+602.953+106.219+600.658+106.219C598.401+106.219+595.617+106.314+592.306+106.502C588.808+106.69+585.798+106.785+583.278+106.785C582.676+106.785+582.375+106.345+582.375+105.466C582.375+104.681+582.676+104.257+583.278+104.194C587.83+103.754+590.924+103.047+592.56+102.074C594.197+101.1+595.015+99.1531+595.015+96.2324L595.015+77.4833L575.49+51.9034C572.819+48.7628+570.468+46.7214+568.437+45.7793C566.405+44.8371+563.678+44.209+560.254+43.8949C559.653+43.8949+559.352+43.4553+559.352+42.5759C559.352+41.6965+559.653+41.2569+560.254+41.2569C562.023+41.2569+564.43+41.3511+567.477+41.5395C570.788+41.7279+573.459+41.8222+575.49+41.8222C577.409+41.8222+580.061+41.7279+583.447+41.5395C587.397+41.3511+590.689+41.2569+593.322+41.2569C593.924+41.2569+594.225+41.6965+594.225+42.5759C594.225+43.4553+593.924+43.8949+593.322+43.8949C588.432+44.4602+585.986+45.528+585.986+47.0983C585.986+48.3545+586.757+49.9719+588.3+51.9505L604.608+73.1493L621.593+51.9034C622.797+50.4273+623.399+49.1397+623.399+48.0405C623.399+46.8471+622.731+45.9442+621.396+45.3317C620.06+44.7193+617.794+44.2404+614.596+43.8949C614.144+43.8949+613.919+43.4553+613.919+42.5759C613.919+41.6965+614.22+41.2569+614.822+41.2569C617.041+41.2569+619.75+41.3511+622.947+41.5395C626.07+41.7279+628.666+41.8222+630.735+41.8222C632.653+41.8222+634.685+41.7279+636.829+41.5395C639.011+41.3511+641.08+41.2569+643.036+41.2569C643.638+41.2569+643.939+41.6965+643.939+42.5759Z" opacity="1" fill="#ffffff"/>
<path d="M766.729+105.466C766.729+106.345+766.429+106.785+765.827+106.785C763.268+106.785+760.24+106.69+756.741+106.502C753.431+106.314+750.628+106.219+748.333+106.219C746.039+106.219+743.387+106.314+740.377+106.502C737.217+106.69+734.377+106.785+731.856+106.785C731.254+106.785+730.953+106.345+730.953+105.466C730.953+104.681+731.273+104.257+731.913+104.194C735.073+103.88+737.424+103.448+738.966+102.898C740.509+102.349+741.496+101.626+741.929+100.731C742.361+99.8362+742.578+98.3366+742.578+96.2324L742.578+75.2221L699.522+75.2221L699.522+96.2324C699.522+98.3366+699.738+99.8362+700.171+100.731C700.604+101.626+701.591+102.349+703.134+102.898C704.676+103.448+707.046+103.88+710.244+104.194C710.846+104.257+711.147+104.681+711.147+105.466C711.147+106.345+710.846+106.785+710.244+106.785C707.723+106.785+704.883+106.69+701.723+106.502C698.713+106.314+696.061+106.219+693.766+106.219C691.472+106.219+688.65+106.314+685.302+106.502C681.803+106.69+678.794+106.785+676.273+106.785C675.671+106.785+675.37+106.345+675.37+105.466C675.37+104.681+675.671+104.257+676.273+104.194C680.825+103.754+683.919+103.047+685.556+102.074C687.192+101.1+688.011+99.1531+688.011+96.2324L688.011+51.9034C688.011+49.705+687.681+48.1582+687.023+47.2632C686.365+46.3681+685.208+45.6615+683.553+45.1433C681.897+44.6251+679.471+44.209+676.273+43.8949C675.671+43.8949+675.37+43.4553+675.37+42.5759C675.37+41.6965+675.671+41.2569+676.273+41.2569C678.794+41.2569+681.803+41.3511+685.302+41.5395C688.65+41.7279+691.472+41.8222+693.766+41.8222C696.061+41.8222+698.713+41.7279+701.723+41.5395C704.883+41.3511+707.723+41.2569+710.244+41.2569C710.846+41.2569+711.147+41.6965+711.147+42.5759C711.147+43.4553+710.846+43.8949+710.244+43.8949C707.309+44.1776+705.09+44.5545+703.585+45.0255C702.08+45.4966+701.027+46.1326+700.425+46.9334C699.823+47.7343+699.522+49.3909+699.522+51.9034L699.522+72.2071L742.578+72.2071L742.578+51.9034C742.578+49.7992+742.361+48.2917+741.929+47.381C741.496+46.4702+740.518+45.74+738.994+45.1904C737.471+44.6408+735.091+44.209+731.856+43.8949C731.254+43.8949+730.953+43.4553+730.953+42.5759C730.953+41.6965+731.254+41.2569+731.856+41.2569C734.377+41.2569+737.217+41.3511+740.377+41.5395C743.387+41.7279+746.039+41.8222+748.333+41.8222C750.628+41.8222+753.431+41.7279+756.741+41.5395C760.24+41.3511+763.268+41.2569+765.827+41.2569C766.429+41.2569+766.729+41.6965+766.729+42.5759C766.729+43.4553+766.429+43.8949+765.827+43.8949C762.629+44.209+760.202+44.6251+758.547+45.1433C756.892+45.6615+755.735+46.3681+755.077+47.2632C754.418+48.1582+754.089+49.705+754.089+51.9034L754.089+96.2324C754.089+99.1531+754.908+101.1+756.544+102.074C758.18+103.047+761.275+103.754+765.827+104.194C766.429+104.257+766.729+104.681+766.729+105.466Z" opacity="1" fill="#ffffff"/>
<path d="M852.615+105.466C852.615+106.345+852.314+106.785+851.712+106.785C849.116+106.785+846.182+106.69+842.909+106.502C840.088+106.314+837.68+106.219+835.686+106.219C833.391+106.219+830.551+106.314+827.165+106.502C823.591+106.69+820.544+106.785+818.024+106.785C817.422+106.785+817.121+106.345+817.121+105.466C817.121+104.586+817.347+104.147+817.798+104.147C821.146+104.021+823.554+103.652+825.021+103.04C826.488+102.427+827.222+101.477+827.222+100.19C827.222+99.373+826.846+98.0696+826.093+96.2795L819.717+80.4982L796.468+80.4982L790.035+95.1018C789.207+97.049+788.793+98.5564+788.793+99.6242C788.793+102.388+791.841+103.895+797.935+104.147C798.386+104.147+798.612+104.586+798.612+105.466C798.612+106.345+798.311+106.785+797.709+106.785C795.452+106.785+792.95+106.69+790.204+106.502C787.608+106.314+785.295+106.219+783.263+106.219C781.646+106.219+779.614+106.314+777.169+106.502C774.611+106.69+772.429+106.785+770.623+106.785C770.059+106.785+769.777+106.392+769.777+105.607C769.777+104.728+770.209+104.257+771.075+104.194C774.197+103.943+776.67+103.22+778.495+102.027C780.32+100.833+782.21+98.3994+784.166+94.7249L810.575+40.5973C810.801+40.0949+811.327+39.8436+812.155+39.8436C813.058+39.8436+813.622+40.0791+813.848+40.5502L837.153+94.7249C838.47+97.7713+840.248+100.017+842.486+101.461C844.724+102.906+847.724+103.817+851.486+104.194C852.239+104.257+852.615+104.681+852.615+105.466ZM818.475+77.4833L808.544+53.4108L797.822+77.4833L818.475+77.4833Z" opacity="1" fill="#ffffff"/>
<path d="M922.136+89.4488C920.368+94.9762+918.976+100.755+917.96+106.785C903.552+106.408+893.301+106.219+887.206+106.219C881.187+106.219+871.067+106.408+856.847+106.785C856.245+106.785+855.944+106.345+855.944+105.466C855.944+104.681+856.245+104.257+856.847+104.194C861.399+103.754+864.493+103.047+866.13+102.074C867.766+101.1+868.584+99.1531+868.584+96.2324L868.584+51.9034C868.584+49.705+868.255+48.1582+867.597+47.2632C866.939+46.3681+865.782+45.6615+864.127+45.1433C862.471+44.6251+860.045+44.209+856.847+43.8949C856.245+43.8949+855.944+43.4553+855.944+42.5759C855.944+41.6965+856.245+41.2569+856.847+41.2569C859.368+41.2569+862.377+41.3511+865.876+41.5395C869.224+41.7279+872.045+41.8222+874.34+41.8222C876.635+41.8222+879.438+41.7279+882.748+41.5395C886.209+41.3511+889.2+41.2569+891.72+41.2569C892.322+41.2569+892.623+41.6965+892.623+42.5759C892.623+43.4553+892.322+43.8949+891.72+43.8949C888.56+44.209+886.153+44.6251+884.498+45.1433C882.842+45.6615+881.695+46.3603+881.055+47.2396C880.416+48.119+880.096+49.6736+880.096+51.9034L880.096+97.6457C880.096+101.352+882.278+103.204+886.642+103.204L897.815+103.204C902.442+103.204+906.354+102.176+909.552+100.119C912.75+98.0618+915.91+94.2225+919.032+88.6009C919.183+88.3496+919.54+88.224+920.104+88.224C920.594+88.224+921.054+88.3496+921.487+88.6009C921.92+88.8521+922.136+89.1347+922.136+89.4488Z" opacity="1" fill="#ffffff"/>
<path d="M991.883+89.4488C990.114+94.9762+988.723+100.755+987.707+106.785C973.299+106.408+963.047+106.219+956.953+106.219C950.934+106.219+940.814+106.408+926.594+106.785C925.992+106.785+925.691+106.345+925.691+105.466C925.691+104.681+925.992+104.257+926.594+104.194C931.146+103.754+934.24+103.047+935.876+102.074C937.513+101.1+938.331+99.1531+938.331+96.2324L938.331+51.9034C938.331+49.705+938.002+48.1582+937.344+47.2632C936.685+46.3681+935.528+45.6615+933.873+45.1433C932.218+44.6251+929.791+44.209+926.594+43.8949C925.992+43.8949+925.691+43.4553+925.691+42.5759C925.691+41.6965+925.992+41.2569+926.594+41.2569C929.114+41.2569+932.124+41.3511+935.623+41.5395C938.971+41.7279+941.792+41.8222+944.087+41.8222C946.382+41.8222+949.184+41.7279+952.495+41.5395C955.956+41.3511+958.947+41.2569+961.467+41.2569C962.069+41.2569+962.37+41.6965+962.37+42.5759C962.37+43.4553+962.069+43.8949+961.467+43.8949C958.307+44.209+955.899+44.6251+954.244+45.1433C952.589+45.6615+951.442+46.3603+950.802+47.2396C950.162+48.119+949.843+49.6736+949.843+51.9034L949.843+97.6457C949.843+101.352+952.025+103.204+956.389+103.204L967.562+103.204C972.189+103.204+976.101+102.176+979.299+100.119C982.497+98.0618+985.657+94.2225+988.779+88.6009C988.929+88.3496+989.287+88.224+989.851+88.224C990.34+88.224+990.801+88.3496+991.234+88.6009C991.666+88.8521+991.883+89.1347+991.883+89.4488Z" opacity="1" fill="#ffffff"/>
</g>
<g opacity="1">
<path d="M1105.91-111.015C1105.91-110.418+1105.23-110.12+1103.88-110.12C1103.27-110.12+1102.9-110.34+1102.75-110.779C1101.13-115.208+1098.82-118.34+1095.81-120.178C1092.8-122.015+1088.34-122.933+1082.43-122.933L1077.13-122.933C1075.29-122.933+1074.02-122.682+1073.35-122.18C1072.67-121.677+1072.33-120.735+1072.33-119.353L1072.33-71.538C1072.33-69.371+1072.66-67.84+1073.32-66.945C1073.98-66.0499+1075.14-65.3433+1076.82-64.8251C1078.49-64.3069+1080.89-63.8908+1084.01-63.5767C1084.61-63.5139+1084.92-63.0899+1084.92-62.3048C1084.92-61.4254+1084.61-60.9857+1084.01-60.9857C1081.49-60.9857+1078.48-61.08+1074.98-61.2684C1071.67-61.4568+1068.91-61.551+1066.69-61.551C1064.39-61.551+1061.57-61.4568+1058.22-61.2684C1054.73-61.08+1051.72-60.9857+1049.2-60.9857C1048.59-60.9857+1048.29-61.4254+1048.29-62.3048C1048.29-63.0899+1048.59-63.5139+1049.2-63.5767C1053.75-64.0164+1056.84-64.723+1058.48-65.6966C1060.12-66.6702+1060.93-68.6173+1060.93-71.538L1060.93-119.353C1060.93-120.735+1060.59-121.677+1059.92-122.18C1059.24-122.682+1057.96-122.933+1056.08-122.933L1051.68-122.933C1046.37-122.933+1041.56-121.811+1037.23-119.565C1032.91-117.32+1030.09-114.407+1028.77-110.826C1028.58-110.355+1028.17-110.12+1027.53-110.12C1026.25-110.12+1025.61-110.465+1025.61-111.156C1027.72-115.898+1029.71-121.269+1031.59-127.267C1036.71-126.388+1048.41-125.948+1066.69-125.948C1085.46-125.948+1097.41-126.388+1102.52-127.267C1103.05-123.185+1104.18-117.767+1105.91-111.015Z" opacity="1" fill="#ffffff"/>
<path d="M1074.36+6.47355C1074.36+7.35291+1073.69+7.79259+1072.33+7.79259L1041.41+7.79259C1041.18+9.48849+1041.07+11.2472+1041.07+13.0687C1041.07+18.125+1042.51+22.0115+1045.39+24.7281C1048.26+27.4447+1052.36+28.803+1057.66+28.803C1060.33+28.803+1063.02+28.2063+1065.73+27.0128C1068.44+25.8194+1070.62+24.2962+1072.28+22.4433L1072.56+22.3491C1072.9+22.3491+1073.23+22.5218+1073.55+22.8673C1073.86+23.2128+1074.02+23.621+1074.02+24.0921C1074.02+24.7516+1072.82+26.1256+1070.41+28.2141C1068.01+30.3026+1065.39+31.8964+1062.57+32.9956C1059.75+34.0948+1056.8+34.6444+1053.71+34.6444C1046.94+34.6444+1041.24+32.5716+1036.61+28.4261C1031.98+24.2805+1029.67+19.1928+1029.67+13.163C1029.67+7.00745+1031.94+1.79411+1036.47-2.47705C1041-6.74822+1046.75-8.8838+1053.71-8.8838C1059.54-8.8838+1064.44-7.28997+1068.41-4.10229C1072.38-0.914622+1074.36+2.61066+1074.36+6.47355ZM1064.09+2.32801C1064.09-0.0274132+1063.12-1.98241+1061.19-3.53699C1059.25-5.09157+1056.76-5.86886+1053.71-5.86886C1050.81-5.86886+1048.3-4.85603+1046.18-2.83037C1044.05-0.804702+1042.61+1.85692+1041.86+5.15452L1057.55+4.77765C1059.92+4.74624+1061.6+4.55781+1062.6+4.21235C1063.59+3.86689+1064.09+3.23877+1064.09+2.32801Z" opacity="1" fill="#ffffff"/>
<path d="M1081.81+126.129C1081.81+127.008+1081.51+127.448+1080.91+127.448C1079.4+127.448+1077.5+127.354+1075.21+127.165C1072.69+126.977+1070.51+126.883+1068.66+126.883C1066.78+126.883+1064.41+126.977+1061.55+127.165C1058.92+127.354+1056.85+127.448+1055.35+127.448C1054.74+127.448+1054.44+127.008+1054.44+126.129C1054.44+125.344+1054.74+124.92+1055.35+124.857C1058.28+124.543+1059.75+123.774+1059.75+122.549C1059.75+121.544+1058.56+119.644+1056.19+116.849L1051.4+111.243L1046.43+116.896C1043.65+119.911+1042.26+121.826+1042.26+122.643C1042.26+123.774+1043.76+124.512+1046.77+124.857C1047.3+124.92+1047.56+125.344+1047.56+126.129C1047.56+127.008+1047.26+127.448+1046.66+127.448C1045.3+127.448+1043.59+127.354+1041.52+127.165C1039.3+126.977+1037.48+126.883+1036.05+126.883C1034.47+126.883+1032.64+126.993+1030.57+127.213C1028.96+127.37+1027.66+127.448+1026.68+127.448C1026.08+127.448+1025.78+127.008+1025.78+126.129C1025.78+125.344+1026.12+124.92+1026.79+124.857C1030.03+124.512+1032.44+123.876+1034.02+122.949C1035.6+122.023+1037.93+120.005+1041.01+116.896L1049.14+108.699L1039.43+97.3929C1036.65+94.1895+1034.48+92.1324+1032.92+91.2217C1031.35+90.3109+1029.16+89.7299+1026.34+89.4786C1025.74+89.4158+1025.44+88.9761+1025.44+88.1596C1025.44+87.2802+1025.74+86.8406+1026.34+86.8406C1027.88+86.8406+1029.82+86.9348+1032.15+87.1232C1034.75+87.3117+1036.95+87.4059+1038.76+87.4059C1040.6+87.4059+1042.88+87.3117+1045.58+87.1232C1047.99+86.9348+1049.97+86.8406+1051.51+86.8406C1052.11+86.8406+1052.41+87.2802+1052.41+88.1596C1052.41+88.9447+1052.11+89.3687+1051.51+89.4315C1048.88+89.7142+1047.56+90.4836+1047.56+91.7398C1047.56+92.7448+1048.76+94.6292+1051.17+97.3929L1055.57+102.481L1060.09+97.3929C1062.8+94.3465+1064.15+92.4308+1064.15+91.6456C1064.15+90.515+1062.68+89.7927+1059.75+89.4786C1059.15+89.4158+1058.85+88.9761+1058.85+88.1596C1058.85+87.2802+1059.15+86.8406+1059.75+86.8406C1061.06+86.8406+1062.78+86.9348+1064.88+87.1232C1067.03+87.3117+1068.81+87.4059+1070.24+87.4059C1071.86+87.4059+1073.72+87.2959+1075.83+87.0761C1077.45+86.9191+1078.73+86.8406+1079.67+86.8406C1080.27+86.8406+1080.57+87.2802+1080.57+88.1596C1080.57+88.9447+1080.23+89.3687+1079.55+89.4315C1076.28+89.8084+1073.86+90.4679+1072.28+91.4101C1070.7+92.3523+1068.4+94.3465+1065.39+97.3929L1057.72+105.119L1067.87+116.896C1070.58+120.068+1072.71+122.117+1074.25+123.043C1075.79+123.97+1078.01+124.574+1080.91+124.857C1081.51+124.92+1081.81+125.344+1081.81+126.129Z" opacity="1" fill="#ffffff"/>
<path d="M1064.66+184.167C1064.66+185.863+1064.17+186.71+1063.19+186.71L1046.37+186.334L1046.37+208.946C1046.37+214.85+1048.89+217.802+1053.94+217.802C1057.06+217.802+1059.9+217.19+1062.46+215.965C1062.76+215.965+1063.03+216.13+1063.28+216.459C1063.52+216.789+1063.64+217.143+1063.64+217.519C1063.64+218.305+1062.24+219.364+1059.44+220.699C1056.64+222.034+1053.48+222.701+1049.99+222.701C1045.7+222.701+1042.27+221.61+1039.72+219.427C1037.16+217.245+1035.88+214.363+1035.88+210.783L1035.88+210.359L1036.1+187.464C1036.1+186.585+1035.65+186.145+1034.75+186.145L1030.46+186.145C1029.63+186.145+1029.22+185.737+1029.22+184.92C1029.22+184.292+1029.56+183.821+1030.24+183.507C1035.46+180.932+1040.02+177.304+1043.89+172.625C1044.31+172.123+1044.83+171.871+1045.47+171.871C1046.52+171.871+1047.05+172.123+1047.05+172.625L1046.6+181.623L1063.19+181.623C1064.17+181.623+1064.66+182.471+1064.66+184.167Z" opacity="1" fill="#ffffff"/>
</g>
<g opacity="1">
<path d="M310.315+184.984C310.315+185.554+310.12+185.838+309.731+185.838C308.049+185.838+306.149+185.777+304.029+185.655C302.201+185.533+300.642+185.472+299.35+185.472C297.864+185.472+296.024+185.533+293.831+185.655C291.516+185.777+289.542+185.838+287.91+185.838C287.52+185.838+287.325+185.554+287.325+184.984C287.325+184.414+287.471+184.13+287.763+184.13C289.932+184.048+291.492+183.809+292.442+183.412C293.392+183.016+293.867+182.4+293.867+181.566C293.867+181.038+293.624+180.193+293.136+179.034L289.006+168.812L273.947+168.812L269.78+178.271C269.244+179.532+268.976+180.509+268.976+181.2C268.976+182.99+270.95+183.967+274.898+184.13C275.19+184.13+275.336+184.414+275.336+184.984C275.336+185.554+275.141+185.838+274.751+185.838C273.289+185.838+271.669+185.777+269.89+185.655C268.209+185.533+266.71+185.472+265.394+185.472C264.347+185.472+263.031+185.533+261.447+185.655C259.79+185.777+258.377+185.838+257.207+185.838C256.841+185.838+256.659+185.584+256.659+185.075C256.659+184.506+256.939+184.201+257.499+184.16C259.522+183.997+261.124+183.529+262.306+182.756C263.488+181.983+264.712+180.407+265.979+178.027L283.085+142.967C283.231+142.641+283.572+142.479+284.108+142.479C284.693+142.479+285.059+142.631+285.205+142.936L300.3+178.027C301.153+180+302.305+181.455+303.754+182.39C305.204+183.326+307.148+183.916+309.584+184.16C310.072+184.201+310.315+184.475+310.315+184.984ZM288.202+166.859L281.769+151.267L274.824+166.859L288.202+166.859Z" opacity="1" fill="#ffffff"/>
<path d="M362.364+153.433C362.364+153.82+361.925+154.013+361.048+154.013C360.658+154.013+360.414+153.87+360.317+153.586C359.269+150.717+357.77+148.688+355.821+147.498C353.872+146.308+350.984+145.713+347.159+145.713L343.723+145.713C342.529+145.713+341.712+145.876+341.274+146.201C340.835+146.527+340.616+147.137+340.616+148.032L340.616+179.003C340.616+180.407+340.829+181.399+341.256+181.978C341.682+182.558+342.437+183.016+343.522+183.351C344.606+183.687+346.16+183.957+348.182+184.16C348.572+184.201+348.767+184.475+348.767+184.984C348.767+185.554+348.572+185.838+348.182+185.838C346.549+185.838+344.6+185.777+342.334+185.655C340.19+185.533+338.399+185.472+336.961+185.472C335.474+185.472+333.647+185.533+331.478+185.655C329.212+185.777+327.263+185.838+325.63+185.838C325.24+185.838+325.045+185.554+325.045+184.984C325.045+184.475+325.24+184.201+325.63+184.16C328.579+183.875+330.583+183.418+331.643+182.787C332.703+182.156+333.233+180.895+333.233+179.003L333.233+148.032C333.233+147.137+333.013+146.527+332.575+146.201C332.136+145.876+331.308+145.713+330.089+145.713L327.238+145.713C323.803+145.713+320.684+146.44+317.881+147.895C315.079+149.349+313.252+151.236+312.399+153.555C312.277+153.86+312.009+154.013+311.595+154.013C310.766+154.013+310.352+153.789+310.352+153.342C311.716+150.27+313.008+146.791+314.226+142.906C317.54+143.476+325.118+143.76+336.961+143.76C349.12+143.76+356.857+143.476+360.171+142.906C360.512+145.55+361.243+149.059+362.364+153.433Z" opacity="1" fill="#ffffff"/>
<path d="M414.339+153.433C414.339+153.82+413.9+154.013+413.023+154.013C412.633+154.013+412.39+153.87+412.292+153.586C411.244+150.717+409.746+148.688+407.796+147.498C405.847+146.308+402.96+145.713+399.134+145.713L395.698+145.713C394.504+145.713+393.688+145.876+393.249+146.201C392.811+146.527+392.591+147.137+392.591+148.032L392.591+179.003C392.591+180.407+392.804+181.399+393.231+181.978C393.657+182.558+394.413+183.016+395.497+183.351C396.581+183.687+398.135+183.957+400.157+184.16C400.547+184.201+400.742+184.475+400.742+184.984C400.742+185.554+400.547+185.838+400.157+185.838C398.525+185.838+396.575+185.777+394.309+185.655C392.165+185.533+390.374+185.472+388.936+185.472C387.45+185.472+385.622+185.533+383.454+185.655C381.187+185.777+379.238+185.838+377.605+185.838C377.216+185.838+377.021+185.554+377.021+184.984C377.021+184.475+377.216+184.201+377.605+184.16C380.554+183.875+382.558+183.418+383.618+182.787C384.678+182.156+385.208+180.895+385.208+179.003L385.208+148.032C385.208+147.137+384.989+146.527+384.55+146.201C384.111+145.876+383.283+145.713+382.065+145.713L379.214+145.713C375.778+145.713+372.659+146.44+369.857+147.895C367.054+149.349+365.227+151.236+364.374+153.555C364.252+153.86+363.984+154.013+363.57+154.013C362.741+154.013+362.327+153.789+362.327+153.342C363.692+150.27+364.983+146.791+366.202+142.906C369.515+143.476+377.094+143.76+388.936+143.76C401.095+143.76+408.832+143.476+412.146+142.906C412.487+145.55+413.218+149.059+414.339+153.433Z" opacity="1" fill="#ffffff"/>
<path d="M471.504+164.845C471.504+171.294+469.019+176.567+464.048+180.666C459.077+184.765+452.583+186.815+444.567+186.815C436.55+186.815+430.062+184.765+425.103+180.666C420.144+176.567+417.665+171.294+417.665+164.845C417.665+158.376+420.163+153.031+425.158+148.81C430.153+144.589+436.623+142.479+444.567+142.479C452.535+142.479+459.016+144.589+464.012+148.81C469.007+153.031+471.504+158.376+471.504+164.845ZM463.463+164.845C463.463+158.844+461.727+153.942+458.255+150.138C454.782+146.334+450.22+144.432+444.567+144.432C438.889+144.432+434.326+146.334+430.878+150.138C427.43+153.942+425.706+158.844+425.706+164.845C425.706+170.805+427.418+175.632+430.842+179.324C434.265+183.016+438.84+184.862+444.567+184.862C450.268+184.862+454.843+183.016+458.291+179.324C461.739+175.632+463.463+170.805+463.463+164.845Z" opacity="1" fill="#ffffff"/>
<path d="M527.793+184.984C527.793+185.554+527.598+185.838+527.208+185.838C526.306+185.838+524.832+185.767+522.785+185.625C521.299+185.523+520.312+185.472+519.825+185.472C519.118+185.472+518.009+185.533+516.499+185.655C514.988+185.777+513.879+185.838+513.172+185.838L502.098+170.765C500.538+168.69+499.277+167.357+498.315+166.767C497.352+166.177+495.421+165.883+492.521+165.883L492.521+179.003C492.521+180.407+492.734+181.399+493.161+181.978C493.587+182.558+494.343+183.016+495.427+183.351C496.511+183.687+498.065+183.957+500.087+184.16C500.501+184.201+500.709+184.475+500.709+184.984C500.709+185.554+500.514+185.838+500.124+185.838C498.491+185.838+496.542+185.777+494.276+185.655C492.107+185.533+490.279+185.472+488.793+185.472C487.307+185.472+485.491+185.533+483.347+185.655C481.105+185.777+479.168+185.838+477.535+185.838C477.146+185.838+476.951+185.554+476.951+184.984C476.951+184.475+477.146+184.201+477.535+184.16C479.558+183.957+481.105+183.687+482.177+183.351C483.249+183.016+483.999+182.563+484.425+181.994C484.852+181.424+485.065+180.427+485.065+179.003L485.065+150.29C485.065+148.887+484.864+147.895+484.462+147.315C484.06+146.735+483.323+146.273+482.25+145.927C481.178+145.581+479.607+145.306+477.535+145.103C477.146+145.103+476.951+144.818+476.951+144.249C476.951+143.679+477.146+143.394+477.535+143.394C479.168+143.394+481.105+143.455+483.347+143.577C485.491+143.699+487.307+143.76+488.793+143.76C490.279+143.76+492.107+143.699+494.276+143.577C496.542+143.455+498.491+143.394+500.124+143.394C505.558+143.394+509.761+144.355+512.734+146.278C515.707+148.2+517.193+150.9+517.193+154.379C517.193+156.576+516.164+158.615+514.104+160.497C512.045+162.379+509.262+163.828+505.753+164.845L517.559+179.858C518.533+181.2+519.788+182.192+521.323+182.833C522.858+183.474+524.844+183.916+527.281+184.16C527.622+184.201+527.793+184.475+527.793+184.984ZM509.152+154.379C509.152+148.439+506.045+145.469+499.831+145.469C497.785+145.469+496.231+145.606+495.171+145.881C494.111+146.156+493.405+146.588+493.051+147.178C492.698+147.768+492.521+148.805+492.521+150.29L492.521+163.869C493.935+164.031+495.713+164.113+497.858+164.113C501.781+164.113+504.644+163.34+506.447+161.794C508.25+160.248+509.152+157.776+509.152+154.379Z" opacity="1" fill="#ffffff"/>
<path d="M591.026+144.31C591.026+144.818+590.831+145.093+590.441+145.133C587.395+145.418+585.306+145.886+584.172+146.537C583.039+147.188+582.448+148.439+582.4+150.29L581.596+186.204C581.596+186.611+581.303+186.815+580.718+186.815C580.426+186.815+580.036+186.652+579.549+186.327L541.865+150.778L541.353+179.003C541.329+179.166+541.317+179.319+541.317+179.461C541.317+181.007+541.901+182.1+543.071+182.741C544.241+183.382+546.348+183.855+549.394+184.16C549.784+184.201+549.979+184.475+549.979+184.984C549.979+185.554+549.784+185.838+549.394+185.838C548.127+185.838+546.385+185.777+544.168+185.655C542.096+185.533+540.5+185.472+539.379+185.472C538.161+185.472+536.516+185.533+534.445+185.655C532.447+185.777+530.9+185.838+529.803+185.838C529.413+185.838+529.218+185.554+529.218+184.984C529.218+184.475+529.438+184.201+529.876+184.16C532.898+183.855+534.969+183.382+536.09+182.741C537.211+182.1+537.808+180.854+537.881+179.003L539.16+150.29L539.16+150.016C539.16+148.368+538.587+147.218+537.442+146.568C536.297+145.917+534.165+145.428+531.046+145.103C530.705+145.103+530.534+144.818+530.534+144.249C530.534+143.679+530.729+143.394+531.119+143.394C531.972+143.394+533.166+143.455+534.701+143.577C536.065+143.699+537.089+143.76+537.771+143.76C538.624+143.76+539.647+143.699+540.841+143.577C542.06+143.455+543.108+143.394+543.985+143.394L579.183+176.257L579.183+150.29C579.183+148.561+578.592+147.346+577.411+146.644C576.229+145.942+574.042+145.439+570.85+145.133C570.46+145.093+570.265+144.818+570.265+144.31C570.265+143.74+570.46+143.455+570.85+143.455C572.165+143.455+573.92+143.506+576.113+143.608C578.16+143.709+579.744+143.76+580.865+143.76C582.083+143.76+583.728+143.709+585.799+143.608C587.797+143.506+589.344+143.455+590.441+143.455C590.831+143.455+591.026+143.74+591.026+144.31Z" opacity="1" fill="#ffffff"/>
<path d="M637.957+175.769C635.983+179.288+634.375+182.645+633.132+185.838C623.946+185.594+617.403+185.472+613.504+185.472C609.654+185.472+603.124+185.594+593.913+185.838C593.523+185.838+593.328+185.554+593.328+184.984C593.328+184.475+593.523+184.201+593.913+184.16C595.936+183.957+597.483+183.687+598.555+183.351C599.627+183.016+600.377+182.563+600.803+181.994C601.229+181.424+601.443+180.427+601.443+179.003L601.443+150.29C601.443+148.887+601.242+147.895+600.84+147.315C600.438+146.735+599.7+146.273+598.628+145.927C597.556+145.581+595.984+145.306+593.913+145.103C593.523+145.103+593.328+144.818+593.328+144.249C593.328+143.679+593.523+143.394+593.913+143.394C600.054+143.638+606.341+143.76+612.773+143.76C619.255+143.76+625.554+143.638+631.67+143.394C632.231+146.547+633.047+149.66+634.119+152.731C634.119+153.138+633.693+153.342+632.84+153.342C632.426+153.342+632.17+153.199+632.072+152.914C630.269+148.114+626.419+145.713+620.522+145.713L613.139+145.713C610.312+145.713+608.899+146.934+608.899+149.375L608.899+162.953L618.11+162.953C620.547+162.953+622.197+162.485+623.063+161.55C623.928+160.614+624.531+158.956+624.872+156.576C624.872+156.25+625.213+156.088+625.895+156.088C626.577+156.088+626.919+156.25+626.919+156.576C626.919+157.593+626.846+158.875+626.699+160.421C626.553+161.906+626.48+163.116+626.48+164.052C626.48+165.008+626.553+166.228+626.699+167.713C626.846+169.3+626.919+170.602+626.919+171.619C626.919+171.945+626.577+172.107+625.895+172.107C625.213+172.107+624.872+171.945+624.872+171.619C624.506+169.137+623.867+167.398+622.953+166.401C622.039+165.404+620.425+164.906+618.11+164.906L608.899+164.906L608.899+179.919C608.899+182.319+610.312+183.519+613.139+183.519L621.107+183.519C624.007+183.519+626.882+182.731+629.733+181.155C632.584+179.578+634.68+177.61+636.02+175.25C636.117+175.067+636.324+174.976+636.641+174.976C636.982+174.976+637.287+175.052+637.555+175.204C637.823+175.357+637.957+175.545+637.957+175.769Z" opacity="1" fill="#ffffff"/>
<path d="M695.78+144.249C695.78+144.472+695.695+144.671+695.525+144.844C695.354+145.016+695.171+145.103+694.976+145.103C692.564+145.327+690.742+145.744+689.512+146.354C688.281+146.964+686.825+148.286+685.144+150.321L671.474+166.737L671.474+179.003C671.474+180.387+671.614+181.363+671.894+181.933C672.175+182.502+672.82+182.965+673.832+183.321C674.843+183.677+676.384+183.957+678.455+184.16C678.845+184.201+679.04+184.475+679.04+184.984C679.04+185.554+678.845+185.838+678.455+185.838C676.823+185.838+674.983+185.777+672.936+185.655C670.962+185.533+669.232+185.472+667.746+185.472C666.284+185.472+664.481+185.533+662.336+185.655C660.07+185.777+658.121+185.838+656.488+185.838C656.098+185.838+655.903+185.554+655.903+184.984C655.903+184.475+656.098+184.201+656.488+184.16C659.437+183.875+661.441+183.418+662.501+182.787C663.561+182.156+664.091+180.895+664.091+179.003L664.091+166.859L651.444+150.29C649.714+148.256+648.191+146.934+646.875+146.323C645.56+145.713+643.793+145.306+641.576+145.103C641.186+145.103+640.991+144.818+640.991+144.249C640.991+143.679+641.186+143.394+641.576+143.394C642.721+143.394+644.28+143.455+646.254+143.577C648.398+143.699+650.128+143.76+651.444+143.76C652.687+143.76+654.405+143.699+656.598+143.577C659.156+143.455+661.289+143.394+662.994+143.394C663.384+143.394+663.579+143.679+663.579+144.249C663.579+144.818+663.384+145.103+662.994+145.103C659.827+145.469+658.243+146.161+658.243+147.178C658.243+147.991+658.742+149.039+659.741+150.321L670.304+164.052L681.306+150.29C682.086+149.334+682.476+148.5+682.476+147.788C682.476+147.015+682.043+146.43+681.178+146.034C680.313+145.637+678.845+145.327+676.774+145.103C676.482+145.103+676.335+144.818+676.335+144.249C676.335+143.679+676.53+143.394+676.92+143.394C678.358+143.394+680.112+143.455+682.183+143.577C684.206+143.699+685.887+143.76+687.228+143.76C688.47+143.76+689.786+143.699+691.175+143.577C692.588+143.455+693.928+143.394+695.196+143.394C695.585+143.394+695.78+143.679+695.78+144.249Z" opacity="1" fill="#ffffff"/>
<path d="M767.639+184.984C767.639+185.554+767.444+185.838+767.055+185.838C765.373+185.838+763.473+185.777+761.353+185.655C759.525+185.533+757.966+185.472+756.674+185.472C755.188+185.472+753.348+185.533+751.155+185.655C748.84+185.777+746.866+185.838+745.234+185.838C744.844+185.838+744.649+185.554+744.649+184.984C744.649+184.414+744.795+184.13+745.087+184.13C747.256+184.048+748.816+183.809+749.766+183.412C750.716+183.016+751.191+182.4+751.191+181.566C751.191+181.038+750.948+180.193+750.46+179.034L746.33+168.812L731.271+168.812L727.104+178.271C726.568+179.532+726.3+180.509+726.3+181.2C726.3+182.99+728.274+183.967+732.222+184.13C732.514+184.13+732.66+184.414+732.66+184.984C732.66+185.554+732.465+185.838+732.075+185.838C730.613+185.838+728.993+185.777+727.214+185.655C725.533+185.533+724.034+185.472+722.718+185.472C721.671+185.472+720.355+185.533+718.771+185.655C717.114+185.777+715.701+185.838+714.531+185.838C714.165+185.838+713.983+185.584+713.983+185.075C713.983+184.506+714.263+184.201+714.823+184.16C716.846+183.997+718.448+183.529+719.63+182.756C720.812+181.983+722.036+180.407+723.303+178.027L740.409+142.967C740.555+142.641+740.896+142.479+741.432+142.479C742.017+142.479+742.383+142.631+742.529+142.936L757.624+178.027C758.477+180+759.629+181.455+761.078+182.39C762.528+183.326+764.472+183.916+766.908+184.16C767.396+184.201+767.639+184.475+767.639+184.984ZM745.526+166.859L739.093+151.267L732.148+166.859L745.526+166.859Z" opacity="1" fill="#ffffff"/>
<path d="M819.688+153.433C819.688+153.82+819.249+154.013+818.372+154.013C817.982+154.013+817.738+153.87+817.641+153.586C816.593+150.717+815.094+148.688+813.145+147.498C811.196+146.308+808.308+145.713+804.483+145.713L801.047+145.713C799.853+145.713+799.036+145.876+798.598+146.201C798.159+146.527+797.94+147.137+797.94+148.032L797.94+179.003C797.94+180.407+798.153+181.399+798.58+181.978C799.006+182.558+799.761+183.016+800.846+183.351C801.93+183.687+803.484+183.957+805.506+184.16C805.896+184.201+806.091+184.475+806.091+184.984C806.091+185.554+805.896+185.838+805.506+185.838C803.873+185.838+801.924+185.777+799.658+185.655C797.514+185.533+795.723+185.472+794.285+185.472C792.798+185.472+790.971+185.533+788.802+185.655C786.536+185.777+784.587+185.838+782.954+185.838C782.564+185.838+782.369+185.554+782.369+184.984C782.369+184.475+782.564+184.201+782.954+184.16C785.903+183.875+787.907+183.418+788.967+182.787C790.027+182.156+790.557+180.895+790.557+179.003L790.557+148.032C790.557+147.137+790.337+146.527+789.899+146.201C789.46+145.876+788.632+145.713+787.413+145.713L784.562+145.713C781.127+145.713+778.008+146.44+775.205+147.895C772.403+149.349+770.576+151.236+769.723+153.555C769.601+153.86+769.333+154.013+768.919+154.013C768.09+154.013+767.676+153.789+767.676+153.342C769.04+150.27+770.332+146.791+771.55+142.906C774.864+143.476+782.442+143.76+794.285+143.76C806.444+143.76+814.181+143.476+817.495+142.906C817.836+145.55+818.567+149.059+819.688+153.433Z" opacity="1" fill="#ffffff"/>
<path d="M882.921+174.609C881.775+178.19+880.874+181.933+880.216+185.838C870.883+185.594+864.243+185.472+860.296+185.472C856.397+185.472+849.842+185.594+840.631+185.838C840.241+185.838+840.047+185.554+840.047+184.984C840.047+184.475+840.241+184.201+840.631+184.16C843.58+183.875+845.584+183.418+846.644+182.787C847.704+182.156+848.234+180.895+848.234+179.003L848.234+150.29C848.234+148.866+848.021+147.864+847.594+147.285C847.168+146.705+846.419+146.247+845.346+145.911C844.274+145.576+842.703+145.306+840.631+145.103C840.241+145.103+840.047+144.818+840.047+144.249C840.047+143.679+840.241+143.394+840.631+143.394C842.264+143.394+844.213+143.455+846.479+143.577C848.648+143.699+850.476+143.76+851.962+143.76C853.449+143.76+855.264+143.699+857.408+143.577C859.65+143.455+861.587+143.394+863.22+143.394C863.61+143.394+863.805+143.679+863.805+144.249C863.805+144.818+863.61+145.103+863.22+145.103C861.173+145.306+859.613+145.576+858.541+145.911C857.469+146.247+856.726+146.7+856.312+147.269C855.897+147.839+855.69+148.846+855.69+150.29L855.69+179.919C855.69+182.319+857.104+183.519+859.93+183.519L867.167+183.519C870.164+183.519+872.699+182.853+874.77+181.521C876.841+180.188+878.888+177.701+880.91+174.06C881.008+173.897+881.239+173.816+881.605+173.816C881.922+173.816+882.22+173.897+882.5+174.06C882.781+174.223+882.921+174.406+882.921+174.609Z" opacity="1" fill="#ffffff"/>
<path d="M936.723+184.984C936.723+185.554+936.529+185.838+936.139+185.838C934.457+185.838+932.557+185.777+930.437+185.655C928.609+185.533+927.05+185.472+925.758+185.472C924.272+185.472+922.432+185.533+920.239+185.655C917.924+185.777+915.95+185.838+914.318+185.838C913.928+185.838+913.733+185.554+913.733+184.984C913.733+184.414+913.879+184.13+914.172+184.13C916.34+184.048+917.9+183.809+918.85+183.412C919.8+183.016+920.276+182.4+920.276+181.566C920.276+181.038+920.032+180.193+919.545+179.034L915.414+168.812L900.355+168.812L896.189+178.271C895.653+179.532+895.384+180.509+895.384+181.2C895.384+182.99+897.358+183.967+901.306+184.13C901.598+184.13+901.744+184.414+901.744+184.984C901.744+185.554+901.549+185.838+901.16+185.838C899.697+185.838+898.077+185.777+896.298+185.655C894.617+185.533+893.118+185.472+891.803+185.472C890.755+185.472+889.439+185.533+887.855+185.655C886.198+185.777+884.785+185.838+883.615+185.838C883.25+185.838+883.067+185.584+883.067+185.075C883.067+184.506+883.347+184.201+883.908+184.16C885.93+183.997+887.532+183.529+888.714+182.756C889.896+181.983+891.12+180.407+892.387+178.027L909.493+142.967C909.639+142.641+909.98+142.479+910.517+142.479C911.101+142.479+911.467+142.631+911.613+142.936L926.709+178.027C927.561+180+928.713+181.455+930.163+182.39C931.612+183.326+933.556+183.916+935.992+184.16C936.48+184.201+936.723+184.475+936.723+184.984ZM914.61+166.859L908.177+151.267L901.233+166.859L914.61+166.859Z" opacity="1" fill="#ffffff"/>
<path d="M1018.96+144.126C1018.96+144.371+1018.87+144.594+1018.69+144.798C1018.51+145.001+1018.3+145.103+1018.09+145.103C1016.28+145.245+1014.81+145.728+1013.66+146.552C1012.52+147.376+1011.34+148.948+1010.12+151.267L991.477+186.327C991.355+186.652+991.014+186.815+990.453+186.815C990.015+186.815+989.673+186.652+989.43+186.327L978.976+168.08L966.951+186.327C966.707+186.652+966.366+186.815+965.928+186.815C965.392+186.815+965.038+186.652+964.868+186.327L946.556+151.267C945.41+149.09+944.204+147.569+942.937+146.705C941.67+145.84+939.903+145.306+937.637+145.103C937.442+145.103+937.26+145.016+937.089+144.844C936.918+144.671+936.833+144.472+936.833+144.249C936.833+143.679+937.028+143.394+937.418+143.394C939.051+143.394+940.756+143.455+942.535+143.577C944.192+143.699+945.752+143.76+947.214+143.76C948.7+143.76+950.454+143.699+952.477+143.577C954.597+143.455+956.473+143.394+958.106+143.394C958.496+143.394+958.691+143.679+958.691+144.249C958.691+144.818+958.569+145.103+958.325+145.103C956.692+145.205+955.407+145.55+954.469+146.14C953.531+146.73+953.062+147.503+953.062+148.459C953.062+148.948+953.257+149.558+953.647+150.29L968.779+178.82L977.368+165.272L969.363+151.267C967.926+148.765+966.744+147.152+965.818+146.43C964.892+145.708+963.491+145.266+961.615+145.103C961.444+145.103+961.28+145.016+961.121+144.844C960.963+144.671+960.884+144.472+960.884+144.249C960.884+143.679+961.054+143.394+961.395+143.394C963.028+143.394+964.526+143.455+965.891+143.577C967.207+143.699+968.608+143.76+970.094+143.76C971.556+143.76+973.104+143.699+974.736+143.577C976.418+143.455+978.075+143.394+979.707+143.394C980.097+143.394+980.292+143.679+980.292+144.249C980.292+144.818+980.17+145.103+979.927+145.103C976.661+145.286+975.029+146.059+975.029+147.422C975.029+148.032+975.406+148.978+976.162+150.26L981.462+159.231L986.725+151.022C987.456+149.863+987.822+148.887+987.822+148.093C987.822+146.222+986.189+145.225+982.924+145.103C982.631+145.103+982.485+144.818+982.485+144.249C982.485+144.045+982.558+143.852+982.704+143.669C982.851+143.486+982.997+143.394+983.143+143.394C984.313+143.394+985.75+143.455+987.456+143.577C989.089+143.699+990.429+143.76+991.477+143.76C992.232+143.76+993.341+143.709+994.803+143.608C996.655+143.465+998.202+143.394+999.445+143.394C999.737+143.394+999.883+143.638+999.883+144.126C999.883+144.777+999.615+145.103+999.079+145.103C997.179+145.266+995.65+145.703+994.492+146.415C993.335+147.127+991.891+148.744+990.161+151.267L983.143+162.099L992.646+178.271L1006.68+151.022C1007.17+150.026+1007.41+149.11+1007.41+148.276C1007.41+146.283+1005.78+145.225+1002.51+145.103C1002.22+145.103+1002.08+144.818+1002.08+144.249C1002.08+143.679+1002.3+143.394+1002.73+143.394C1003.93+143.394+1005.34+143.455+1006.97+143.577C1008.48+143.699+1009.75+143.76+1010.78+143.76C1011.85+143.76+1013.09+143.699+1014.5+143.577C1015.97+143.455+1017.28+143.394+1018.45+143.394C1018.79+143.394+1018.96+143.638+1018.96+144.126Z" opacity="1" fill="#ffffff"/>
</g>
</g>
</g>
</svg>
